<svg width="40" height="40" viewBox="0 0 40 40" fill="none" xmlns="http://www.w3.org/2000/svg">
<g id="Clock Arrow Download / undefined">
<path id="Vector" d="M7.5013 18.3332C7.5013 10.5091 13.8439 4.1665 21.668 4.1665C29.492 4.1665 35.8346 10.5091 35.8346 18.3332C35.8346 26.1572 29.492 32.4998 21.668 32.4998C21.4941 32.4998 21.3208 32.4967 21.1485 32.4905C20.871 33.3522 20.4885 34.1667 20.0161 34.919C20.5595 34.9725 21.1106 34.9998 21.668 34.9998C30.8726 34.9998 38.3346 27.5378 38.3346 18.3332C38.3346 9.12842 30.8726 1.6665 21.668 1.6665C12.4632 1.6665 5.0013 9.12842 5.0013 18.3332C5.0013 18.8905 5.02867 19.4417 5.08212 19.985C5.83449 19.5127 6.649 19.1302 7.51065 18.8527C7.50444 18.6803 7.5013 18.507 7.5013 18.3332ZM21.6565 9.41362C21.5738 8.80372 21.0505 8.33317 20.418 8.33317C19.728 8.33317 19.168 8.89317 19.168 9.58317V19.5832L19.1795 19.7527C19.2621 20.3627 19.7855 20.8332 20.418 20.8332H27.0846L27.2541 20.8217C27.8641 20.739 28.3346 20.2157 28.3346 19.5832C28.3346 18.8932 27.7746 18.3332 27.0846 18.3332H21.668V9.58317L21.6565 9.41362ZM1.66797 29.1665C1.66797 24.3848 5.32922 20.4583 10.0013 20.0373V29.6547L7.25722 26.9105C6.93179 26.5852 6.40415 26.5852 6.07872 26.9105C5.75327 27.236 5.75327 27.7637 6.07872 28.0892L10.2454 32.2558C10.5708 32.5812 11.0985 32.5812 11.4239 32.2558L15.5906 28.0892C15.916 27.7637 15.916 27.236 15.5906 26.9105C15.2651 26.5852 14.7375 26.5852 14.4121 26.9105L11.668 29.6547V20.0373C16.3401 20.4583 20.0013 24.3848 20.0013 29.1665C20.0013 34.2292 15.8973 38.3332 10.8346 38.3332C5.77202 38.3332 1.66797 34.2292 1.66797 29.1665ZM15.8346 34.1665C15.8346 33.7063 15.4615 33.3332 15.0013 33.3332H6.66797C6.20774 33.3332 5.83464 33.7063 5.83464 34.1665C5.83464 34.6267 6.20774 34.9998 6.66797 34.9998H15.0013C15.4615 34.9998 15.8346 34.6267 15.8346 34.1665Z" fill="white"/>
</g>
</svg>
