<svg width="40" height="40" viewBox="0 0 40 40" fill="none" xmlns="http://www.w3.org/2000/svg">
<g id="Frame">
<path id="Vector" d="M10.418 3.3335C8.3469 3.3335 6.66797 5.01243 6.66797 7.0835V32.9168C6.66797 34.9878 8.3469 36.6668 10.418 36.6668H22.9186C24.978 36.6668 26.6496 35.007 26.6686 32.9522L26.669 32.917V30.417C26.669 29.7267 26.1095 29.167 25.419 29.167C24.6626 29.167 24.1868 28.9635 23.8576 28.699C23.511 28.4202 23.2251 27.9902 23.006 27.3837C22.5516 26.1253 22.5025 24.4662 22.5023 22.9168C22.5023 22.6003 22.3821 22.2955 22.1661 22.0642C22.039 21.9278 21.9536 21.8355 21.8921 21.7692C21.7415 21.6063 21.7343 21.5987 21.608 21.4797C21.4848 21.3638 21.1086 21.0047 19.6363 19.533C18.8555 18.7525 18.4225 18.092 18.2808 17.5875C18.216 17.3563 18.2193 17.1838 18.2548 17.045C18.2901 16.9073 18.3768 16.7265 18.596 16.5072C18.815 16.2881 18.9955 16.2019 19.1323 16.1669C19.2701 16.1315 19.4421 16.1283 19.6728 16.1933C20.177 16.3355 20.837 16.7693 21.6181 17.551C22.5175 18.4508 23.3721 19.296 24.1376 20.0532C25.4035 21.3048 26.427 22.317 27.0053 22.9367C27.4763 23.4413 28.2673 23.4685 28.772 22.9975C29.2766 22.5265 29.304 21.7355 28.833 21.2308C28.3586 20.7227 27.5965 19.96 26.6683 19.0402L26.6681 13.434L31.4038 18.1697C32.107 18.8728 32.5021 19.8267 32.5021 20.8212V35.4168C32.5021 36.1072 33.0618 36.6668 33.7521 36.6668C34.4425 36.6668 35.0021 36.1072 35.0021 35.4168V20.8212C35.0021 19.1637 34.3436 17.574 33.1715 16.4018L26.6681 9.8984L26.668 7.0834C26.668 5.01236 24.9891 3.3335 22.918 3.3335H10.418ZM20.6546 28.2328C20.816 28.6797 21.0241 29.1232 21.2943 29.5365C20.0368 30.1418 19.1691 31.4282 19.1691 32.9172V34.1668H14.1691V32.9172C14.1691 30.846 12.4901 29.1672 10.4191 29.1672H9.16797V10.8329H10.4191C12.4901 10.8329 14.1691 9.15401 14.1691 7.08295V5.8335H19.1691V7.08295C19.1691 9.15401 20.848 10.8329 22.9191 10.8329H24.1681L24.1683 16.5637C23.9108 16.3075 23.6496 16.0471 23.3865 15.7838C22.5013 14.8981 21.4726 14.1034 20.3513 13.7872C19.7693 13.623 19.1443 13.5831 18.512 13.745C18.1355 13.8415 17.7836 14.0025 17.458 14.2196C17.1998 14.1847 16.9365 14.1667 16.6688 14.1667C13.4471 14.1667 10.8354 16.7783 10.8354 20C10.8354 23.2217 13.4471 25.8333 16.6688 25.8333C17.9255 25.8333 19.0895 25.4358 20.0418 24.7598C20.1033 25.9002 20.2593 27.1383 20.6546 28.2328ZM13.3354 20C13.3354 18.4738 14.3612 17.187 15.7609 16.7918C15.6911 17.2975 15.7422 17.7942 15.8739 18.2632C16.189 19.3855 16.9826 20.4153 17.869 21.3012C18.3385 21.7705 18.699 22.129 18.9771 22.4047C18.3783 22.9798 17.5648 23.3333 16.6688 23.3333C14.8278 23.3333 13.3354 21.841 13.3354 20ZM9.16797 7.0835C9.16797 6.39315 9.72762 5.8335 10.418 5.8335H11.6691V7.08295C11.6691 7.77331 11.1094 8.33295 10.4191 8.33295H9.16797V7.0835ZM21.6691 5.8335H22.918C23.6083 5.8335 24.168 6.39311 24.168 7.08346L24.1681 8.33295H22.9191C22.2286 8.33295 21.6691 7.77331 21.6691 7.08295V5.8335ZM24.1686 31.6672V32.9168C24.1688 33.6072 23.6091 34.1668 22.9186 34.1668H21.6691V32.9172C21.6691 32.2267 22.2286 31.6672 22.9191 31.6672H24.1686ZM11.6691 34.1668H10.418C9.72762 34.1668 9.16797 33.6072 9.16797 32.9168V31.6672H10.4191C11.1094 31.6672 11.6691 32.2267 11.6691 32.9172V34.1668Z" fill="white"/>
</g>
</svg>
