<svg width="40" height="40" viewBox="0 0 40 40" fill="none" xmlns="http://www.w3.org/2000/svg">
<g id="Airplane Take Off / undefined">
<path id="Vector" d="M13.8592 14.0134L12.5727 12.1354C10.9843 9.8165 12.6447 6.6665 15.4555 6.6665C16.2558 6.6665 17.032 6.94127 17.654 7.44485L21.9553 10.9268C22.4712 10.3808 23.0867 9.79469 23.7723 9.26594C24.8702 8.4195 26.272 7.62347 27.8207 7.50422C31.5503 7.21704 34.3362 9.57667 35.9117 11.3819C36.7262 12.3152 36.8895 13.4952 36.5412 14.5199C36.2002 15.5231 35.3853 16.3477 34.3047 16.7203L25.3533 19.8068L20.0827 26.8347C19.3748 27.7785 18.264 28.3338 17.0843 28.3338C14.7255 28.3338 12.9531 26.1808 13.4064 23.8658L13.8252 21.7272L9.60883 22.6375C7.23818 23.1493 5 21.3428 5 18.9175V12.8193C5 11.2625 6.262 10.0005 7.81875 10.0005C8.85025 10.0005 9.79937 10.564 10.2933 11.4695L11.9032 14.4209L13.8592 14.0134ZM14.6352 10.7226L16.511 13.461L19.6755 12.8017C19.8255 12.7705 19.974 12.7218 20.119 12.6567L16.0811 9.38797C15.9041 9.24469 15.6832 9.1665 15.4555 9.1665C14.6557 9.1665 14.1833 10.0628 14.6352 10.7226ZM28.0127 9.99684C27.1685 10.0618 26.2332 10.5254 25.2988 11.2458C24.3833 11.9517 23.5862 12.8127 23.0313 13.4811C22.3312 14.3247 21.355 15.0055 20.1855 15.2492L11.505 17.0575C10.9657 17.17 10.4164 16.916 10.1526 16.4324L8.09857 12.6666C8.04272 12.5642 7.93538 12.5005 7.81875 12.5005C7.6427 12.5005 7.5 12.6432 7.5 12.8193V18.9175C7.5 19.7495 8.26788 20.3693 9.08122 20.1938L15.1529 18.8828C15.5638 18.7942 15.9918 18.918 16.292 19.2123C16.5921 19.5067 16.7242 19.9323 16.6434 20.3448L15.8598 24.3462C15.7089 25.117 16.299 25.8338 17.0843 25.8338C17.4772 25.8338 17.847 25.649 18.0827 25.3347L23.5833 18.0002C23.7332 17.8002 23.9397 17.6498 24.1758 17.5683L33.4897 14.3569C33.8623 14.2284 34.0893 13.9648 34.1742 13.7154C34.2515 13.4876 34.2245 13.2508 34.028 13.0257C32.607 11.3974 30.5308 9.80294 28.0127 9.99684ZM6.25 32.4998C5.55965 32.4998 5 33.0595 5 33.7498C5 34.4402 5.55965 34.9998 6.25 34.9998H33.75C34.4403 34.9998 35 34.4402 35 33.7498C35 33.0595 34.4403 32.4998 33.75 32.4998H6.25Z" fill="white"/>
</g>
</svg>
